<?xml version="1.0" encoding="UTF-8" standalone="no"?>
<!-- Created with Inkscape (http://www.inkscape.org/) -->

<svg
   width="210mm"
   height="297mm"
   viewBox="0 0 210 297"
   version="1.1"
   id="svg5"
   sodipodi:docname="monkey-rock.svg"
   inkscape:export-filename="/home/trevor-west/coding/the-odin-project/landing-page-project/resources/monkey-rock-drawing.png"
   inkscape:export-xdpi="96"
   inkscape:export-ydpi="96"
   inkscape:version="1.1.1 (eb90963e84, 2021-10-02)"
   xmlns:inkscape="http://www.inkscape.org/namespaces/inkscape"
   xmlns:sodipodi="http://sodipodi.sourceforge.net/DTD/sodipodi-0.dtd"
   xmlns="http://www.w3.org/2000/svg"
   xmlns:svg="http://www.w3.org/2000/svg">
  <sodipodi:namedview
     id="namedview7"
     pagecolor="#505050"
     bordercolor="#eeeeee"
     borderopacity="1"
     inkscape:pageshadow="0"
     inkscape:pageopacity="0"
     inkscape:pagecheckerboard="0"
     inkscape:document-units="mm"
     showgrid="false"
     inkscape:zoom="0.77771465"
     inkscape:cx="106.72295"
     inkscape:cy="561.25984"
     inkscape:window-width="1551"
     inkscape:window-height="1082"
     inkscape:window-x="398"
     inkscape:window-y="105"
     inkscape:window-maximized="0"
     inkscape:current-layer="layer1" />
  <defs
     id="defs2" />
  <g
     inkscape:label="Layer 1"
     inkscape:groupmode="layer"
     id="layer1">
    <path
       style="fill:#000000;fill-opacity:1;fill-rule:nonzero;stroke:none;stroke-width:0.264583"
       id="path96"
       d="m 94.207845,70.246318 c -1.365091,0.09837 -2.697448,0.460587 -4.016142,0.810165 -2.344817,0.634357 -4.638927,1.782514 -6.407425,3.460872 -0.778095,0.78995 -1.399808,1.594099 -1.660912,2.680065 -0.143118,0.87404 -0.160845,1.761675 -0.164123,2.645354 -0.02704,0.620967 0.0718,1.252853 -0.03992,1.866374 -0.06852,0.688538 -0.348504,1.135552 -0.875028,1.562282 -0.553273,0.291704 -1.017651,0.700659 -1.57317,0.992855 5.714309,-3.123647 2.999534,-1.55175 1.244949,-1.248561 -1.076941,0.193093 -2.160693,0.341815 -3.240637,0.516218 -0.77818,0.133839 -1.575179,0.17885 -2.329702,0.423598 -1.540502,0.610976 -0.399438,0.142846 -3.859815,2.233623 -0.308782,0.186568 -0.473102,0.483407 -0.593485,0.808027 -0.167698,0.517601 -0.01857,0.961099 0.320249,1.360297 0.562343,0.480038 1.243336,0.798356 1.931737,1.054073 0.47123,0.162005 0.98417,0.197692 1.428115,0.436163 -0.07111,-0.04704 -0.130472,-0.141393 -0.217313,-0.143759 -0.07372,-0.0021 -0.125045,0.07823 -0.187354,0.117679 -0.09837,0.06228 -0.395526,0.245729 -0.294693,0.187513 3.555957,-2.053093 3.979066,-2.274006 2.644748,-1.559541 -0.919699,0.41185 -1.941907,0.464513 -2.925048,0.623371 -1.676101,0.302339 -3.372117,0.476986 -5.035399,0.847251 -2.016395,0.732468 -4.152466,1.647574 -5.630714,3.234841 -0.163605,0.175673 -0.472498,0.597088 -0.621329,0.795391 -0.345525,0.631661 -0.695611,1.267036 -0.999099,1.920965 -0.264898,0.679219 -0.539017,1.354066 -0.836403,2.019945 -0.23562,0.583377 -0.357296,1.199187 -0.410935,1.823432 -0.166785,0.584909 -0.25994,1.184239 -0.315966,1.788659 -0.08035,0.58952 0.02006,1.16418 0.2207,1.71855 0.304313,0.60047 0.75134,1.11419 1.160711,1.64482 0.546812,0.58629 1.139886,1.12724 1.68868,1.71319 0.535281,0.57379 1.070819,1.15625 1.700426,1.62816 0.437116,0.34663 0.973135,0.50799 1.44916,0.78923 0.594466,0.51371 1.275093,0.90788 1.921251,1.34964 0.552156,0.38814 1.145397,0.7139 1.683573,1.12175 0.454599,0.30215 0.899784,0.6207 1.359738,0.91543 0.528455,0.30269 0.900296,0.78621 1.3281,1.20662 0.660943,0.55771 1.427652,1.03468 1.852422,1.81123 0.0013,0.45229 -0.478324,0.97664 -0.803288,1.2713 -0.398518,0.40163 -0.507852,0.92296 -0.571129,1.46341 0.03008,0.73913 0.227118,1.44623 0.398621,2.16026 0.267713,0.70939 0.602445,1.40253 0.963295,2.07027 0.331753,0.54457 0.781955,0.96355 1.270076,1.36094 0.570275,0.42273 1.129038,0.8576 1.659666,1.32999 0.558442,0.52181 1.198522,0.94726 1.882576,1.28478 0.580798,0.22941 1.194141,0.37752 1.806146,0.49825 0.375703,0.061 0.189093,0.0353 0.559761,0.0778 0,0 3.225866,-2.30082 3.225866,-2.30082 v 0 c -0.359608,-0.0215 -0.177797,-0.007 -0.54538,-0.0452 -0.593979,-0.0937 -1.171067,-0.2533 -1.74819,-0.41691 -0.672023,-0.2809 -1.293331,-0.68742 -1.838214,-1.16961 -0.524994,-0.48131 -1.058849,-0.95376 -1.64235,-1.36104 -0.444381,-0.37329 -0.898155,-0.71374 -1.206193,-1.22404 -0.350002,-0.63437 -0.661453,-1.30268 -0.911268,-1.98175 -0.165258,-0.66481 -0.358351,-1.33572 -0.31569,-2.02846 0.09572,-0.49226 0.292653,-0.90026 0.666239,-1.24692 0.394603,-0.49905 0.809829,-1.06069 0.576927,-1.72186 -0.476575,-0.78606 -1.207376,-1.33206 -1.9197,-1.8944 -0.448284,-0.44231 -0.814718,-0.96794 -1.360689,-1.29699 -0.464796,-0.25813 -0.867619,-0.61592 -1.335066,-0.87157 -0.531876,-0.43306 -1.147014,-0.74505 -1.711661,-1.13279 -0.643821,-0.45092 -1.345126,-0.82686 -1.921052,-1.37006 -0.462339,-0.30859 -0.967989,-0.4839 -1.435942,-0.77354 -0.637759,-0.41846 -1.151054,-0.99634 -1.66806,-1.55113 -0.536038,-0.58228 -1.116653,-1.11657 -1.661705,-1.68693 -0.382074,-0.49726 -0.807408,-0.97492 -1.088168,-1.53783 -0.164449,-0.51266 -0.233196,-1.02694 -0.145476,-1.563718 0.07055,-0.604184 0.204581,-1.193919 0.319823,-1.790322 0.07404,-0.589917 0.208698,-1.169143 0.456076,-1.71296 0.275656,-0.667247 0.549375,-1.335592 0.838142,-1.996903 0.328276,-0.620395 0.610565,-1.270796 1.019709,-1.84345 0.226325,-0.279807 0.3688,-0.475757 0.636429,-0.723061 0.137919,-0.127442 0.60216,-0.443404 0.434843,-0.358158 -5.623036,2.864916 -2.778313,1.525558 -1.52608,0.96135 1.635821,-0.428646 3.317354,-0.578086 4.983075,-0.849646 1.000017,-0.144902 2.013852,-0.250706 2.989884,-0.517274 1.643394,-0.775387 0.619125,-0.278981 4.110096,-2.348076 0.350906,-0.207984 0.665385,-0.46215 0.368295,-0.870471 -0.443505,-0.311502 -0.981996,-0.390536 -1.501199,-0.499356 -0.644146,-0.201613 -1.266827,-0.481735 -1.807019,-0.891376 -0.271293,-0.288134 -0.290639,-0.587299 -0.102497,-0.941213 0.133167,-0.194352 0.269875,-0.334309 0.454485,-0.481841 0.06762,-0.05404 0.281345,-0.200557 0.205669,-0.158535 -2.078254,1.154033 -4.310301,2.481577 -2.946157,1.671402 0.746567,-0.292182 1.522606,-0.417357 2.320626,-0.507389 1.075108,-0.174493 2.154862,-0.313127 3.225808,-0.513583 2.162884,-0.251232 3.623892,-1.25821 5.593395,-2.525107 0.531029,-0.335348 1.055436,-0.692478 1.542717,-1.086903 0.45213,-0.525118 0.708284,-1.103484 0.764635,-1.803307 0.05227,-0.634447 0.0038,-1.271204 0.01114,-1.907262 0.0011,-0.850625 0.0035,-1.710515 0.199689,-2.543204 0.324247,-0.988293 0.975789,-1.749841 1.724282,-2.461453 1.335561,-1.084144 0.848748,-0.640443 -2.335991,1.181028 -0.150265,0.08594 0.307475,-0.159242 0.463555,-0.234106 0.390248,-0.187184 0.562319,-0.261334 0.981806,-0.392459 0.19105,-0.05972 0.385683,-0.107317 0.578524,-0.160975 1.281922,-0.367477 2.583641,-0.718008 3.911328,-0.864071 0,0 3.20503,-2.328593 3.20503,-2.328593 z" />
    <path
       style="fill:#000000;fill-opacity:1;fill-rule:nonzero;stroke:none;stroke-width:0.264583"
       id="path106"
       d="m 90.690911,72.522108 c 1.084315,-0.272568 2.196382,-0.405503 3.308109,-0.502877 0.710356,-0.03127 1.411642,-0.06753 2.110904,-0.198777 0.682696,-0.163181 1.373015,-0.152926 2.067626,-0.112754 0.822023,0.01844 1.628177,0.176897 2.43966,0.291417 1.02573,0.237223 2.02559,0.569111 2.99675,0.973693 1.17719,0.408988 2.27564,0.995982 3.36913,1.585449 0.94933,0.550072 1.86006,1.161632 2.79606,1.735307 0.68224,0.415954 1.22593,0.992389 1.72667,1.605108 0.34245,0.350052 0.38424,0.794917 0.51372,1.237094 0.1151,0.237808 0.24001,0.469969 0.35428,0.708157 0,0 3.44856,-1.957623 3.44856,-1.957623 v 0 c -0.105,-0.215288 -0.21815,-0.426138 -0.31901,-0.643408 -0.1243,-0.5036 -0.23505,-0.988634 -0.60711,-1.380252 -0.54065,-0.633987 -1.09827,-1.259628 -1.81582,-1.701612 -0.94724,-0.575329 -1.87136,-1.182944 -2.82737,-1.742308 -1.10156,-0.579308 -2.1856,-1.215421 -3.36298,-1.631204 -0.99401,-0.427643 -2.0287,-0.723783 -3.05508,-1.061503 -0.81933,-0.103542 -1.62461,-0.297145 -2.45246,-0.315356 -0.70683,-0.05071 -1.413387,-0.129387 -2.114893,0.02529 -0.701596,0.130265 -1.388343,0.260855 -2.108274,0.246287 -1.114534,0.09028 -2.225789,0.221938 -3.323812,0.43715 0,0 -3.14466,2.402708 -3.14466,2.402708 z" />
    <path
       style="fill:#000000;fill-opacity:1;fill-rule:nonzero;stroke:none;stroke-width:0.264583"
       id="path108"
       d="m 112.65909,79.705165 c 0.1735,0.89813 0.29341,1.806667 0.64156,2.657639 0.36811,0.79712 0.75442,1.582859 1.10788,2.386909 0.31092,0.649827 0.69166,1.255546 1.10497,1.843027 0.35733,0.62394 0.83553,1.157007 1.29552,1.704398 0.61319,0.604554 1.28916,1.137372 1.90741,1.738045 0.42853,0.566372 0.81263,1.176732 1.12132,1.817277 0.17562,0.381985 0.21848,0.793147 0.23314,1.207366 0.005,0.521935 0.007,1.043945 0.006,1.56592 -0.004,0.630902 -0.005,1.261803 -0.006,1.892716 -0.0689,0.629935 0.12815,1.204523 0.30964,1.795015 0.26591,0.66381 0.4669,1.348698 0.70429,2.022413 0.17704,0.64197 0.33524,1.29039 0.44951,1.94707 0.13088,0.8118 0.15642,1.6345 0.17161,2.455 -0.0152,0.90071 0.14362,1.79037 0.22006,2.68666 0.0691,0.86989 0.094,1.74236 0.10566,2.61463 0.0175,0.83316 0.18287,1.6559 0.26099,2.48591 0.0241,0.80052 0.22336,1.57654 0.33128,2.36833 0.10942,0.82098 0.1235,1.64948 0.14153,2.47617 -0.0429,1.03621 0.1202,2.05894 0.22011,3.08668 0.15485,0.96711 0.30622,1.93465 0.39631,2.91022 0.03,0.54986 0.0849,1.08584 0.30623,1.59236 0.25364,0.59395 0.57664,1.15457 0.9256,1.69709 0.40114,0.77013 0.82278,1.52856 1.22571,2.29813 0.63561,1.19105 1.18208,2.42823 1.80749,3.62423 0.51107,0.71872 0.96129,1.4675 1.3742,2.24559 0.48042,1.02539 1.00988,2.02862 1.46019,3.06767 0.38032,0.867 0.83588,1.70003 1.19139,2.578 0.35838,1.01597 0.55217,2.07766 0.82134,3.11831 0.35878,1.33956 0.58101,2.71303 0.77317,4.08525 0.16354,1.26966 0.19925,2.55047 0.21417,3.82902 0.005,0.76952 -0.001,1.53906 -0.005,2.30857 -0.007,0.61404 -0.005,1.22804 -0.002,1.84209 0.003,0.66853 -0.005,1.33703 -2.7e-4,2.00555 0.002,0.36252 0.002,0.72504 8e-4,1.08756 0,0 3.51989,-1.79348 3.51989,-1.79348 v 0 c -8e-4,-0.36282 -0.001,-0.72564 7.9e-4,-1.08846 0.005,-0.66842 -0.003,-1.33683 2.7e-4,-2.00526 0.003,-0.61399 0.007,-1.22796 0.004,-1.84197 -1.8e-4,-0.76869 2.7e-4,-1.53748 -0.0205,-2.30595 -0.0397,-1.28839 -0.0952,-2.57917 -0.26077,-3.85842 -0.20395,-1.38391 -0.41385,-2.7736 -0.79238,-4.12226 -0.26709,-1.06369 -0.42694,-2.15775 -0.81048,-3.18931 -0.37316,-0.8722 -0.83106,-1.70526 -1.21318,-2.57353 -0.46047,-1.04565 -1.00679,-2.05189 -1.4646,-3.09934 -0.4127,-0.77896 -0.84222,-1.54383 -1.38804,-2.24003 -0.65071,-1.17947 -1.20095,-2.41412 -1.80045,-3.61965 -0.39563,-0.78827 -0.82377,-1.55773 -1.21822,-2.34622 -0.33482,-0.5244 -0.65547,-1.05967 -0.88658,-1.6393 -0.18466,-0.47304 -0.20356,-0.98507 -0.26238,-1.48593 -0.11439,-0.96928 -0.29026,-1.92931 -0.41368,-2.89736 -0.0978,-1.01912 -0.25317,-2.03412 -0.19932,-3.06165 -0.008,-0.84237 -0.0364,-1.68628 -0.16108,-2.52077 -0.11249,-0.78528 -0.27667,-1.56313 -0.32018,-2.35658 -0.0863,-0.8187 -0.24165,-1.63293 -0.24356,-2.4577 -0.0156,-0.87783 -0.0574,-1.75441 -0.1381,-2.62895 -0.0772,-0.89118 -0.19388,-1.78074 -0.18774,-2.67655 -0.0267,-0.83721 -0.0605,-1.67697 -0.20323,-2.50402 -0.11836,-0.678284 -0.26042,-1.355173 -0.46953,-2.011733 -0.23762,-0.666367 -0.44775,-1.341499 -0.69701,-2.003923 -0.1631,-0.559538 -0.30986,-1.104096 -0.25118,-1.695471 5.3e-4,-0.629883 10e-4,-1.259769 0.003,-1.889649 0.004,-0.531696 0.0209,-1.06371 5.3e-4,-1.595236 -0.0327,-0.464209 -0.11604,-0.920126 -0.32198,-1.342491 -0.34214,-0.67379 -0.75907,-1.312807 -1.1994,-1.92577 -0.60647,-0.596548 -1.28285,-1.109106 -1.88461,-1.707753 -0.45584,-0.53739 -0.93537,-1.054719 -1.26694,-1.683448 -0.40371,-0.560565 -0.79637,-1.126188 -1.0899,-1.756085 -0.3442,-0.80568 -0.7404,-1.584915 -1.09338,-2.386502 -0.33524,-0.811 -0.4597,-1.68756 -0.56899,-2.553729 0,0 -3.51665,1.823665 -3.51665,1.823665 z" />
    <path
       style="fill:#000000;fill-opacity:1;fill-rule:nonzero;stroke:none;stroke-width:0.264583"
       id="path112"
       d="m 79.332779,127.26654 c -0.820827,1.969 -1.870617,3.82658 -2.851202,5.71716 -0.920623,1.72674 -1.913906,3.41565 -2.805409,5.15774 -0.443553,0.90265 -0.769893,1.85234 -1.139153,2.7849 -0.311476,1.24185 -0.79787,2.43177 -1.260809,3.62297 -0.570626,1.92447 -1.269915,3.80743 -1.767998,5.75274 -0.430835,1.72603 -0.908759,3.42823 -1.585011,5.07449 -0.358756,0.92229 -0.71982,1.83673 -0.999291,2.78639 -0.157911,0.59562 -0.0653,0.30393 -0.27691,0.87536 0,0 3.564628,-1.66836 3.564628,-1.66836 v 0 c 0.194508,-0.59503 0.103571,-0.29812 0.273327,-0.89059 0.29246,-0.92655 0.636728,-1.83261 0.978472,-2.74206 0.629825,-1.66298 1.098547,-3.37474 1.527955,-5.09958 0.51344,-1.93675 1.188324,-3.82363 1.816262,-5.72544 0.469527,-1.20142 0.940689,-2.40222 1.300157,-3.64238 0.348194,-0.92248 0.699238,-1.84489 1.126606,-2.73449 0.878925,-1.72152 1.819249,-3.41133 2.72509,-5.1187 1.003096,-1.92722 2.061366,-3.82595 2.974287,-5.79913 0,0 -3.601001,1.64898 -3.601001,1.64898 z" />
    <path
       style="fill:#000000;fill-opacity:1;fill-rule:nonzero;stroke:none;stroke-width:0.264583"
       id="path114"
       d="m 84.872384,81.977586 c 1.535907,0.423984 3.104518,0.725633 4.64642,1.131221 1.059172,0.188129 1.710796,0.96189 2.395161,1.716013 0.499153,0.539139 1.14635,0.924788 1.538304,1.552573 0.238606,0.585306 0.429083,1.194667 0.564631,1.812972 0.08676,0.508895 0.136433,1.031687 0.09065,1.547016 -0.07013,0.408702 -0.375243,0.537681 -0.665388,0.785403 -1.298144,0.708961 0.08817,-0.04573 2.987596,-1.750603 0.0653,-0.0384 -0.133215,0.07236 -0.201896,0.104318 -0.180406,0.08395 -0.365474,0.160678 -0.546851,0.243146 -1.514033,0.520767 -2.271882,1.175647 -4.052406,2.234785 -0.139327,0.08288 -0.244097,0.214789 -0.378693,0.305144 -0.755534,0.447794 -1.455259,0.98375 -2.212991,1.431327 -1.014232,0.619778 -3.06183,1.86563 2.287802,-1.313775 0.154958,-0.09209 -0.319574,0.166883 -0.480288,0.248517 -0.416083,0.211344 -0.833966,0.418862 -1.24919,0.631976 -1.25484,0.727313 -2.509679,1.454624 -3.764518,2.181937 -0.1235,0.07439 -0.49529,0.295394 -0.370502,0.223181 1.009635,-0.584245 2.021467,-1.164793 3.025087,-1.75931 0.494713,-0.293055 -0.596373,0.26828 -0.88851,0.381845 -2.263047,1.223224 -7.444687,4.310797 -0.951913,0.52474 0.102619,-0.05984 -0.207758,0.1153 -0.313084,0.170235 -1.441685,0.751928 0.773195,-0.421748 -0.76812,0.397701 -1.535691,0.816054 -3.013138,1.725678 -4.508074,2.619404 -0.289123,0.172849 -0.521461,0.415115 -0.790903,0.614458 -0.468854,0.365662 -0.581652,0.932005 -0.807413,1.444889 -0.245385,0.585471 -0.388075,1.194751 -0.318428,1.826611 0.260543,0.79521 0.38694,1.62453 0.600572,2.43067 0.105365,0.62325 0.382902,1.10039 0.817063,1.54919 0.418983,0.31519 0.794731,0.64998 1.033417,1.12165 0.256117,0.44132 0.300432,0.9577 0.337897,1.45621 0.02946,0.51687 0.02336,1.03479 0.02103,1.55223 -0.0037,0.46546 -0.0028,0.93095 -0.003,1.39642 0.06081,0.38759 -0.0624,0.72537 -0.152083,1.0896 -0.225896,0.22961 -0.265506,0.57186 -0.517408,0.78461 -0.311026,0.34103 -0.619191,0.69067 -0.958104,1.01448 -0.41986,0.52257 -0.892326,0.9899 -1.423263,1.3973 -1.436571,0.82492 1.59081,-0.91286 2.833291,-1.65051 0.114146,-0.0678 -0.237067,0.11963 -0.357386,0.17571 -0.341114,0.15901 -0.688057,0.30828 -1.035222,0.4535 -0.58965,0.25406 -1.212466,0.41154 -1.822312,0.60675 0,0 -3.124608,2.42431 -3.124608,2.42431 v 0 c 0.612257,-0.2035 1.235237,-0.36513 1.83973,-0.59088 1.898684,-0.69867 3.705857,-1.72397 5.340091,-2.89493 0.512699,-0.43452 0.939363,-0.95551 1.408165,-1.43551 0.331465,-0.34287 0.664464,-0.68758 0.954545,-1.06581 0.164833,-0.30342 0.349028,-0.60712 0.452557,-0.93578 0.103526,-0.38524 0.109397,-0.77497 0.09583,-1.1727 0.0013,-0.46583 0.0051,-0.93165 0.0047,-1.39748 -0.0011,-0.52699 -0.0052,-1.05458 -0.04256,-1.58047 -0.05395,-0.54687 -0.126913,-1.11131 -0.408869,-1.59394 -0.262972,-0.49826 -0.622599,-0.91801 -1.100595,-1.22479 -0.40518,-0.38475 -0.612886,-0.81485 -0.720151,-1.36451 -0.21069,-0.77995 -0.364921,-1.57666 -0.562337,-2.360107 0.003,-0.583533 0.166076,-1.136906 0.404259,-1.66833 0.198988,-0.499316 0.422095,-0.950087 0.887442,-1.257504 0.244633,-0.198815 1.300474,-0.870622 0.78446,-0.583176 -5.55875,3.096506 -3.453177,1.944735 -2.226003,1.2928 0.350774,-0.207013 0.724416,-0.357836 1.076383,-0.558501 1.238592,-0.706152 2.482141,-1.404343 3.702675,-2.141263 1.008745,-0.609049 -2.045648,1.170199 -3.067169,1.757564 -0.09467,0.05443 0.19105,-0.105836 0.286575,-0.158753 0.29423,-0.164203 0.620673,-0.211894 0.912977,-0.375131 1.249132,-0.69758 2.484702,-1.419194 3.724335,-2.133521 0.123722,-0.07129 0.489919,-0.293523 0.365604,-0.223263 -0.993939,0.561742 -1.983107,1.131879 -2.97466,1.69782 2.094532,-1.073136 4.191744,-2.13951 6.162424,-3.438895 0.757867,-0.479036 1.495539,-0.989367 2.246712,-1.478322 0.128471,-0.100725 0.538424,-0.368054 0.396282,-0.287772 -6.88826,3.890444 -3.961979,2.006211 -2.778006,1.659628 0.199123,-0.06395 0.365551,-0.161695 0.55653,-0.24053 1.420299,-0.586306 2.846316,-1.284539 4.008795,-2.30686 0.325379,-0.301556 0.525383,-0.607359 0.530442,-1.071387 0.0046,-0.549823 -0.02466,-1.103249 -0.146918,-1.641012 -0.161878,-0.654185 -0.360146,-1.30614 -0.634667,-1.921656 -0.408241,-0.660276 -1.027411,-1.084847 -1.594405,-1.605021 -0.731031,-0.786508 -1.414397,-1.692902 -2.536331,-1.893252 -1.525151,-0.386096 -3.08593,-0.65237 -4.584379,-1.132067 0,0 -3.280831,2.217467 -3.280831,2.217467 z" />
  </g>
</svg>
